<svg width="22" height="22" viewBox="0 0 22 22" fill="none" xmlns="http://www.w3.org/2000/svg">
<path d="M21.3666 13.4702C22.9598 6.53593 16.6879 0.236453 9.3225 1.44574C5.324 -0.957741 0 1.75827 0 6.36635C0 7.43801 0.30525 8.44131 0.836 9.30611C-0.644417 16.2564 5.67875 22.4653 13.0378 21.1735C18.2398 23.838 23.9883 18.524 21.3666 13.4702ZM14.3651 17.6521C12.4328 18.4219 9.25283 18.4264 7.32875 17.4506C4.58517 16.0335 4.0975 12.8434 6.46433 12.8434C8.24817 12.8434 7.6835 14.858 9.48475 15.6793C10.3116 16.0495 12.089 16.0877 13.1221 15.4129C14.1423 14.7514 14.0488 13.7109 13.4943 13.2136C12.0248 11.8996 7.82008 12.4217 5.89783 10.1212C5.06275 9.1232 4.90508 7.36255 5.93175 6.08578C7.72108 3.85543 12.9718 3.71959 15.2295 5.40389C17.314 6.96655 16.7512 9.04063 15.0691 9.04063C13.046 9.04063 14.1093 6.47645 10.8433 6.47645C8.4755 6.47645 7.54417 8.10747 9.21158 8.90123C11.4721 9.98888 17.2324 9.62574 17.2324 13.876C17.2278 15.6447 16.1086 16.9631 14.3651 17.6521Z" fill="black"/>
</svg>
